<svg width="32" height="32" viewBox="0 0 32 32" fill="none" xmlns="http://www.w3.org/2000/svg">
<g id="Group 2241">
<rect id="Rectangle 22" x="0.75" y="0.75" width="30.5" height="30.5" rx="15.25" stroke="#F0B11C" stroke-width="1.5"/>
<g id="Group 2240">
<path id="?" d="M14.4321 20.1858C14.4321 19.5458 14.4705 18.9655 14.5473 18.445C14.6327 17.9159 14.8119 17.4039 15.0849 16.909C15.3324 16.4311 15.6268 16.0428 15.9681 15.7442C16.3095 15.437 16.6764 15.1426 17.0689 14.861C17.4615 14.5794 17.8497 14.2338 18.2337 13.8242C18.5751 13.4402 18.8012 13.0562 18.9121 12.6722C19.0231 12.2796 19.0785 11.8658 19.0785 11.4306C19.0785 11.0466 19.0316 10.701 18.9377 10.3938C18.8524 10.078 18.7073 9.80924 18.5025 9.58738C18.1953 9.20338 17.8113 8.93884 17.3505 8.79378C16.8983 8.64871 16.4247 8.57618 15.9297 8.57618C15.4604 8.57618 15.0167 8.64018 14.5985 8.76818C14.1889 8.89618 13.8476 9.09671 13.5745 9.36978C13.3015 9.61724 13.1009 9.92018 12.9729 10.2786C12.8449 10.6284 12.7809 11.0082 12.7809 11.4178H10.4001C10.4513 10.6754 10.6263 9.97138 10.9249 9.30578C11.2321 8.63164 11.6545 8.07698 12.1921 7.64178C12.6956 7.21511 13.2716 6.90364 13.9201 6.70738C14.5687 6.50258 15.2215 6.40018 15.8785 6.40018C16.7489 6.40018 17.5724 6.53244 18.3489 6.79698C19.134 7.06151 19.7868 7.50098 20.3073 8.11538C20.7084 8.55058 21.0071 9.04978 21.2033 9.61298C21.3996 10.1762 21.4977 10.7692 21.4977 11.3922C21.4977 12.1516 21.3441 12.8599 21.0369 13.517C20.7383 14.174 20.3329 14.7671 19.8209 15.2962C19.5393 15.6034 19.2321 15.885 18.8993 16.141C18.5751 16.397 18.2636 16.653 17.9649 16.909C17.6748 17.165 17.4444 17.4466 17.2737 17.7538C17.0519 18.1548 16.9239 18.526 16.8897 18.8674C16.8641 19.2002 16.8513 19.6396 16.8513 20.1858H14.4321ZM14.4449 25.2034V22.4002H16.8513V25.2034H14.4449Z" fill="#F0B11C"/>
</g>
</g>
</svg>
